<svg xmlns="http://www.w3.org/2000/svg" xmlns:xlink="http://www.w3.org/1999/xlink" width="500" zoomAndPan="magnify" viewBox="0 0 375 374.999991" height="500" preserveAspectRatio="xMidYMid meet" version="1.0"><defs><g/></defs><rect x="-37.5" width="450" fill="#ffffff" y="-37.499999" height="449.999989" fill-opacity="1"/><rect x="-37.5" width="450" fill="#fdfcf8" y="-37.499999" height="449.999989" fill-opacity="1"/><g fill="#000000" fill-opacity="1"><g transform="translate(104.588691, 212.624986)"><g><path d="M 2.308594 -64.367188 C 7.390625 -69.527344 17.09375 -75.222656 24.023438 -75.761719 L 24.023438 0 L 35.1875 0 L 35.1875 -75.761719 C 42.117188 -75.222656 51.816406 -69.527344 56.898438 -64.367188 L 56.898438 -76.996094 L 2.308594 -76.996094 Z M 2.308594 -64.367188 "/></g></g></g><g fill="#000000" fill-opacity="1"><g transform="translate(163.795749, 212.624986)"><g><path d="M 3.851562 -76.996094 L 3.851562 0 L 38.804688 0 C 49.894531 0 59.980469 -8.007812 59.980469 -19.09375 C 59.980469 -44.273438 27.796875 -40.269531 27.796875 -48.890625 C 27.796875 -53.589844 55.359375 -53.203125 55.359375 -68.527344 C 55.359375 -74.839844 49.660156 -76.996094 43.808594 -76.996094 Z M 15.015625 -10.78125 L 15.015625 -75.839844 L 28.488281 -75.839844 C 37.113281 -75.839844 43.886719 -74.300781 43.886719 -67.0625 C 43.886719 -50.96875 19.789062 -53.125 19.789062 -43.195312 C 19.789062 -26.792969 58.824219 -34.878906 58.824219 -19.789062 C 58.824219 -13.089844 52.125 -10.78125 43.195312 -10.78125 Z M 15.015625 -10.78125 "/></g></g></g><g fill="#000000" fill-opacity="1"><g transform="translate(225.595728, 212.624986)"><g><path d="M 35.496094 0.769531 C 51.585938 0.769531 59.132812 -8.546875 59.132812 -8.546875 L 52.972656 -18.402344 C 52.972656 -18.402344 49.199219 -10.625 36.1875 -10.625 C 18.632812 -10.625 9.164062 -27.796875 9.164062 -47.351562 C 9.164062 -62.058594 15.246094 -72.527344 25.792969 -72.527344 C 34.492188 -72.527344 43.269531 -67.753906 49.355469 -60.59375 L 56.898438 -69.601562 C 54.050781 -73.914062 46.121094 -77.765625 38.191406 -77.765625 C 16.324219 -77.765625 3.078125 -61.441406 3.078125 -39.5 C 3.078125 -18.324219 14.089844 0.769531 35.496094 0.769531 Z M 35.496094 0.769531 "/></g></g></g><g fill="#000000" fill-opacity="1"><g transform="translate(154.829306, 225.310648)"><g><path d="M 1.625 -4.078125 L 0.03125 -4.078125 L 0.03125 -4.65625 L 3.875 -4.65625 L 3.875 -4.078125 L 2.28125 -4.078125 L 2.28125 0 L 1.625 0 Z M 1.625 -4.078125 "/></g></g></g><g fill="#000000" fill-opacity="1"><g transform="translate(158.729658, 225.310648)"><g><path d="M 4.6875 -4.65625 L 4.6875 0 L 4.03125 0 L 4.03125 -2.078125 L 1.359375 -2.078125 L 1.359375 0 L 0.703125 0 L 0.703125 -4.65625 L 1.359375 -4.65625 L 1.359375 -2.65625 L 4.03125 -2.65625 L 4.03125 -4.65625 Z M 4.6875 -4.65625 "/></g></g></g><g fill="#000000" fill-opacity="1"><g transform="translate(164.125032, 225.310648)"><g><path d="M 4.078125 -0.578125 L 4.078125 0 L 0.703125 0 L 0.703125 -4.65625 L 3.984375 -4.65625 L 3.984375 -4.078125 L 1.359375 -4.078125 L 1.359375 -2.640625 L 3.6875 -2.640625 L 3.6875 -2.078125 L 1.359375 -2.078125 L 1.359375 -0.578125 Z M 4.078125 -0.578125 "/></g></g></g><g fill="#000000" fill-opacity="1"><g transform="translate(168.576875, 225.310648)"><g/></g></g><g fill="#000000" fill-opacity="1"><g transform="translate(170.364259, 225.310648)"><g><path d="M 3.828125 -2.40625 C 4.097656 -2.332031 4.304688 -2.195312 4.453125 -2 C 4.609375 -1.800781 4.6875 -1.550781 4.6875 -1.25 C 4.6875 -0.851562 4.535156 -0.546875 4.234375 -0.328125 C 3.929688 -0.109375 3.492188 0 2.921875 0 L 0.703125 0 L 0.703125 -4.65625 L 2.78125 -4.65625 C 3.3125 -4.65625 3.722656 -4.546875 4.015625 -4.328125 C 4.304688 -4.117188 4.453125 -3.828125 4.453125 -3.453125 C 4.453125 -3.203125 4.394531 -2.988281 4.28125 -2.8125 C 4.164062 -2.632812 4.015625 -2.5 3.828125 -2.40625 Z M 1.359375 -4.109375 L 1.359375 -2.625 L 2.71875 -2.625 C 3.0625 -2.625 3.320312 -2.6875 3.5 -2.8125 C 3.6875 -2.9375 3.78125 -3.117188 3.78125 -3.359375 C 3.78125 -3.609375 3.6875 -3.796875 3.5 -3.921875 C 3.320312 -4.046875 3.0625 -4.109375 2.71875 -4.109375 Z M 2.890625 -0.53125 C 3.265625 -0.53125 3.546875 -0.59375 3.734375 -0.71875 C 3.929688 -0.84375 4.03125 -1.039062 4.03125 -1.3125 C 4.03125 -1.820312 3.648438 -2.078125 2.890625 -2.078125 L 1.359375 -2.078125 L 1.359375 -0.53125 Z M 2.890625 -0.53125 "/></g></g></g><g fill="#000000" fill-opacity="1"><g transform="translate(175.394177, 225.310648)"><g><path d="M 3.65625 -1.15625 L 1.1875 -1.15625 L 0.671875 0 L 0 0 L 2.09375 -4.65625 L 2.75 -4.65625 L 4.875 0 L 4.171875 0 Z M 3.421875 -1.6875 L 2.421875 -3.96875 L 1.421875 -1.6875 Z M 3.421875 -1.6875 "/></g></g></g><g fill="#000000" fill-opacity="1"><g transform="translate(180.257985, 225.310648)"><g><path d="M 2.21875 -2.0625 L 1.359375 -1.203125 L 1.359375 0 L 0.703125 0 L 0.703125 -4.65625 L 1.359375 -4.65625 L 1.359375 -2.046875 L 3.890625 -4.65625 L 4.640625 -4.65625 L 2.65625 -2.5625 L 4.765625 0 L 3.984375 0 Z M 2.21875 -2.0625 "/></g></g></g><g fill="#000000" fill-opacity="1"><g transform="translate(185.035412, 225.310648)"><g><path d="M 0.703125 -4.65625 L 1.359375 -4.65625 L 1.359375 0 L 0.703125 0 Z M 0.703125 -4.65625 "/></g></g></g><g fill="#000000" fill-opacity="1"><g transform="translate(187.095222, 225.310648)"><g><path d="M 4.6875 -4.65625 L 4.6875 0 L 4.15625 0 L 1.359375 -3.46875 L 1.359375 0 L 0.703125 0 L 0.703125 -4.65625 L 1.234375 -4.65625 L 4.03125 -1.1875 L 4.03125 -4.65625 Z M 4.6875 -4.65625 "/></g></g></g><g fill="#000000" fill-opacity="1"><g transform="translate(192.490596, 225.310648)"><g><path d="M 3.921875 -2.34375 L 4.5625 -2.34375 L 4.5625 -0.53125 C 4.320312 -0.34375 4.050781 -0.195312 3.75 -0.09375 C 3.445312 0 3.128906 0.046875 2.796875 0.046875 C 2.328125 0.046875 1.90625 -0.0507812 1.53125 -0.25 C 1.15625 -0.457031 0.859375 -0.738281 0.640625 -1.09375 C 0.421875 -1.457031 0.3125 -1.867188 0.3125 -2.328125 C 0.3125 -2.773438 0.421875 -3.179688 0.640625 -3.546875 C 0.859375 -3.910156 1.15625 -4.191406 1.53125 -4.390625 C 1.90625 -4.597656 2.332031 -4.703125 2.8125 -4.703125 C 3.175781 -4.703125 3.507812 -4.640625 3.8125 -4.515625 C 4.125 -4.398438 4.382812 -4.222656 4.59375 -3.984375 L 4.1875 -3.578125 C 3.8125 -3.929688 3.359375 -4.109375 2.828125 -4.109375 C 2.472656 -4.109375 2.15625 -4.03125 1.875 -3.875 C 1.601562 -3.726562 1.382812 -3.515625 1.21875 -3.234375 C 1.0625 -2.960938 0.984375 -2.660156 0.984375 -2.328125 C 0.984375 -1.984375 1.0625 -1.675781 1.21875 -1.40625 C 1.382812 -1.132812 1.601562 -0.921875 1.875 -0.765625 C 2.15625 -0.609375 2.472656 -0.53125 2.828125 -0.53125 C 3.242188 -0.53125 3.609375 -0.632812 3.921875 -0.84375 Z M 3.921875 -2.34375 "/></g></g></g><g fill="#000000" fill-opacity="1"><g transform="translate(197.620181, 225.310648)"><g/></g></g><g fill="#000000" fill-opacity="1"><g transform="translate(199.407565, 225.310648)"><g><path d="M 2.78125 0.046875 C 2.3125 0.046875 1.890625 -0.0507812 1.515625 -0.25 C 1.140625 -0.457031 0.84375 -0.738281 0.625 -1.09375 C 0.414062 -1.457031 0.3125 -1.867188 0.3125 -2.328125 C 0.3125 -2.773438 0.414062 -3.175781 0.625 -3.53125 C 0.84375 -3.894531 1.140625 -4.179688 1.515625 -4.390625 C 1.890625 -4.597656 2.3125 -4.703125 2.78125 -4.703125 C 3.144531 -4.703125 3.476562 -4.640625 3.78125 -4.515625 C 4.082031 -4.398438 4.335938 -4.222656 4.546875 -3.984375 L 4.125 -3.5625 C 3.769531 -3.925781 3.332031 -4.109375 2.8125 -4.109375 C 2.46875 -4.109375 2.15625 -4.03125 1.875 -3.875 C 1.59375 -3.71875 1.375 -3.503906 1.21875 -3.234375 C 1.0625 -2.960938 0.984375 -2.660156 0.984375 -2.328125 C 0.984375 -1.984375 1.0625 -1.675781 1.21875 -1.40625 C 1.375 -1.132812 1.59375 -0.921875 1.875 -0.765625 C 2.15625 -0.609375 2.46875 -0.53125 2.8125 -0.53125 C 3.332031 -0.53125 3.769531 -0.71875 4.125 -1.09375 L 4.546875 -0.671875 C 4.335938 -0.429688 4.082031 -0.25 3.78125 -0.125 C 3.476562 -0.0078125 3.144531 0.046875 2.78125 0.046875 Z M 2.78125 0.046875 "/></g></g></g><g fill="#000000" fill-opacity="1"><g transform="translate(204.211577, 225.310648)"><g><path d="M 2.796875 0.046875 C 2.328125 0.046875 1.90625 -0.0507812 1.53125 -0.25 C 1.15625 -0.457031 0.859375 -0.742188 0.640625 -1.109375 C 0.421875 -1.472656 0.3125 -1.878906 0.3125 -2.328125 C 0.3125 -2.773438 0.421875 -3.175781 0.640625 -3.53125 C 0.859375 -3.894531 1.15625 -4.179688 1.53125 -4.390625 C 1.90625 -4.597656 2.328125 -4.703125 2.796875 -4.703125 C 3.265625 -4.703125 3.6875 -4.597656 4.0625 -4.390625 C 4.4375 -4.179688 4.726562 -3.894531 4.9375 -3.53125 C 5.15625 -3.175781 5.265625 -2.773438 5.265625 -2.328125 C 5.265625 -1.867188 5.15625 -1.457031 4.9375 -1.09375 C 4.726562 -0.738281 4.4375 -0.457031 4.0625 -0.25 C 3.6875 -0.0507812 3.265625 0.046875 2.796875 0.046875 Z M 2.796875 -0.53125 C 3.140625 -0.53125 3.445312 -0.609375 3.71875 -0.765625 C 3.988281 -0.921875 4.203125 -1.132812 4.359375 -1.40625 C 4.515625 -1.675781 4.59375 -1.984375 4.59375 -2.328125 C 4.59375 -2.660156 4.515625 -2.960938 4.359375 -3.234375 C 4.203125 -3.503906 3.988281 -3.71875 3.71875 -3.875 C 3.445312 -4.03125 3.140625 -4.109375 2.796875 -4.109375 C 2.453125 -4.109375 2.140625 -4.03125 1.859375 -3.875 C 1.585938 -3.71875 1.375 -3.503906 1.21875 -3.234375 C 1.0625 -2.960938 0.984375 -2.660156 0.984375 -2.328125 C 0.984375 -1.984375 1.0625 -1.675781 1.21875 -1.40625 C 1.375 -1.132812 1.585938 -0.921875 1.859375 -0.765625 C 2.140625 -0.609375 2.453125 -0.53125 2.796875 -0.53125 Z M 2.796875 -0.53125 "/></g></g></g><g fill="#000000" fill-opacity="1"><g transform="translate(209.792998, 225.310648)"><g><path d="M 2.796875 0.046875 C 2.328125 0.046875 1.90625 -0.0507812 1.53125 -0.25 C 1.15625 -0.457031 0.859375 -0.742188 0.640625 -1.109375 C 0.421875 -1.472656 0.3125 -1.878906 0.3125 -2.328125 C 0.3125 -2.773438 0.421875 -3.175781 0.640625 -3.53125 C 0.859375 -3.894531 1.15625 -4.179688 1.53125 -4.390625 C 1.90625 -4.597656 2.328125 -4.703125 2.796875 -4.703125 C 3.265625 -4.703125 3.6875 -4.597656 4.0625 -4.390625 C 4.4375 -4.179688 4.726562 -3.894531 4.9375 -3.53125 C 5.15625 -3.175781 5.265625 -2.773438 5.265625 -2.328125 C 5.265625 -1.867188 5.15625 -1.457031 4.9375 -1.09375 C 4.726562 -0.738281 4.4375 -0.457031 4.0625 -0.25 C 3.6875 -0.0507812 3.265625 0.046875 2.796875 0.046875 Z M 2.796875 -0.53125 C 3.140625 -0.53125 3.445312 -0.609375 3.71875 -0.765625 C 3.988281 -0.921875 4.203125 -1.132812 4.359375 -1.40625 C 4.515625 -1.675781 4.59375 -1.984375 4.59375 -2.328125 C 4.59375 -2.660156 4.515625 -2.960938 4.359375 -3.234375 C 4.203125 -3.503906 3.988281 -3.71875 3.71875 -3.875 C 3.445312 -4.03125 3.140625 -4.109375 2.796875 -4.109375 C 2.453125 -4.109375 2.140625 -4.03125 1.859375 -3.875 C 1.585938 -3.71875 1.375 -3.503906 1.21875 -3.234375 C 1.0625 -2.960938 0.984375 -2.660156 0.984375 -2.328125 C 0.984375 -1.984375 1.0625 -1.675781 1.21875 -1.40625 C 1.375 -1.132812 1.585938 -0.921875 1.859375 -0.765625 C 2.140625 -0.609375 2.453125 -0.53125 2.796875 -0.53125 Z M 2.796875 -0.53125 "/></g></g></g><g fill="#000000" fill-opacity="1"><g transform="translate(215.374418, 225.310648)"><g><path d="M 2.21875 -2.0625 L 1.359375 -1.203125 L 1.359375 0 L 0.703125 0 L 0.703125 -4.65625 L 1.359375 -4.65625 L 1.359375 -2.046875 L 3.890625 -4.65625 L 4.640625 -4.65625 L 2.65625 -2.5625 L 4.765625 0 L 3.984375 0 Z M 2.21875 -2.0625 "/></g></g></g></svg>