<svg xmlns="http://www.w3.org/2000/svg" xmlns:xlink="http://www.w3.org/1999/xlink" width="1920" zoomAndPan="magnify" viewBox="0 0 1440 809.999993" height="1080" preserveAspectRatio="xMidYMid meet" version="1.0"><defs><g/></defs><rect x="-144" width="1728" fill="#ffffff" y="-80.999999" height="971.999992" fill-opacity="1"/><rect x="-144" width="1728" fill="#fdfcf8" y="-80.999999" height="971.999992" fill-opacity="1"/><g fill="#000000" fill-opacity="1"><g transform="translate(375.684637, 493.670779)"><g><path d="M 8.152344 -227.164062 C 26.085938 -245.371094 60.324219 -265.480469 84.78125 -267.382812 L 84.78125 0 L 124.179688 0 L 124.179688 -267.382812 C 148.636719 -265.480469 182.875 -245.371094 200.808594 -227.164062 L 200.808594 -271.730469 L 8.152344 -271.730469 Z M 8.152344 -227.164062 "/></g></g></g><g fill="#000000" fill-opacity="1"><g transform="translate(584.637348, 493.670779)"><g><path d="M 13.585938 -271.730469 L 13.585938 0 L 136.953125 0 C 176.082031 0 211.675781 -28.261719 211.675781 -67.390625 C 211.675781 -156.246094 98.09375 -142.113281 98.09375 -172.546875 C 98.09375 -189.125 195.375 -187.765625 195.375 -241.839844 C 195.375 -264.121094 175.265625 -271.730469 154.613281 -271.730469 Z M 52.988281 -38.042969 L 52.988281 -267.652344 L 100.539062 -267.652344 C 130.972656 -267.652344 154.886719 -262.21875 154.886719 -236.675781 C 154.886719 -179.886719 69.835938 -187.492188 69.835938 -152.441406 C 69.835938 -94.5625 207.601562 -123.09375 207.601562 -69.835938 C 207.601562 -46.195312 183.960938 -38.042969 152.441406 -38.042969 Z M 52.988281 -38.042969 "/></g></g></g><g fill="#000000" fill-opacity="1"><g transform="translate(806.806219, 493.670779)"><g><path d="M 125.265625 2.71875 C 182.058594 2.71875 208.6875 -30.160156 208.6875 -30.160156 L 186.949219 -64.945312 C 186.949219 -64.945312 173.636719 -37.5 127.714844 -37.5 C 65.757812 -37.5 32.335938 -98.09375 32.335938 -167.113281 C 32.335938 -219.015625 53.800781 -255.96875 91.03125 -255.96875 C 121.734375 -255.96875 152.710938 -239.121094 174.179688 -213.851562 L 200.808594 -245.644531 C 190.753906 -260.859375 162.765625 -274.445312 134.777344 -274.445312 C 57.605469 -274.445312 10.871094 -216.839844 10.871094 -139.398438 C 10.871094 -64.671875 49.726562 2.71875 125.265625 2.71875 Z M 125.265625 2.71875 "/></g></g></g><g fill="#000000" fill-opacity="1"><g transform="translate(552.993081, 538.440844)"><g><path d="M 5.71875 -14.375 L 0.09375 -14.375 L 0.09375 -16.421875 L 13.671875 -16.421875 L 13.671875 -14.375 L 8.046875 -14.375 L 8.046875 0 L 5.71875 0 Z M 5.71875 -14.375 "/></g></g></g><g fill="#000000" fill-opacity="1"><g transform="translate(566.758149, 538.440844)"><g><path d="M 16.578125 -16.421875 L 16.578125 0 L 14.234375 0 L 14.234375 -7.3125 L 4.8125 -7.3125 L 4.8125 0 L 2.46875 0 L 2.46875 -16.421875 L 4.8125 -16.421875 L 4.8125 -9.359375 L 14.234375 -9.359375 L 14.234375 -16.421875 Z M 16.578125 -16.421875 "/></g></g></g><g fill="#000000" fill-opacity="1"><g transform="translate(585.799426, 538.440844)"><g><path d="M 14.375 -2.046875 L 14.375 0 L 2.46875 0 L 2.46875 -16.421875 L 14.046875 -16.421875 L 14.046875 -14.375 L 4.8125 -14.375 L 4.8125 -9.328125 L 13.046875 -9.328125 L 13.046875 -7.34375 L 4.8125 -7.34375 L 4.8125 -2.046875 Z M 14.375 -2.046875 "/></g></g></g><g fill="#000000" fill-opacity="1"><g transform="translate(601.510807, 538.440844)"><g/></g></g><g fill="#000000" fill-opacity="1"><g transform="translate(607.818817, 538.440844)"><g><path d="M 13.515625 -8.515625 C 14.460938 -8.242188 15.207031 -7.757812 15.75 -7.0625 C 16.300781 -6.375 16.578125 -5.5 16.578125 -4.4375 C 16.578125 -3.007812 16.039062 -1.910156 14.96875 -1.140625 C 13.90625 -0.378906 12.347656 0 10.296875 0 L 2.46875 0 L 2.46875 -16.421875 L 9.828125 -16.421875 C 11.703125 -16.421875 13.148438 -16.046875 14.171875 -15.296875 C 15.203125 -14.546875 15.71875 -13.503906 15.71875 -12.171875 C 15.71875 -11.304688 15.515625 -10.5625 15.109375 -9.9375 C 14.710938 -9.3125 14.179688 -8.835938 13.515625 -8.515625 Z M 4.8125 -14.515625 L 4.8125 -9.265625 L 9.609375 -9.265625 C 10.816406 -9.265625 11.742188 -9.484375 12.390625 -9.921875 C 13.046875 -10.367188 13.375 -11.023438 13.375 -11.890625 C 13.375 -12.753906 13.046875 -13.40625 12.390625 -13.84375 C 11.742188 -14.289062 10.816406 -14.515625 9.609375 -14.515625 Z M 10.203125 -1.90625 C 11.535156 -1.90625 12.535156 -2.125 13.203125 -2.5625 C 13.878906 -3 14.21875 -3.6875 14.21875 -4.625 C 14.21875 -6.445312 12.878906 -7.359375 10.203125 -7.359375 L 4.8125 -7.359375 L 4.8125 -1.90625 Z M 10.203125 -1.90625 "/></g></g></g><g fill="#000000" fill-opacity="1"><g transform="translate(625.570334, 538.440844)"><g><path d="M 12.921875 -4.109375 L 4.203125 -4.109375 L 2.390625 0 L -0.03125 0 L 7.40625 -16.421875 L 9.734375 -16.421875 L 17.1875 0 L 14.734375 0 Z M 12.109375 -5.984375 L 8.5625 -14.03125 L 5.015625 -5.984375 Z M 12.109375 -5.984375 "/></g></g></g><g fill="#000000" fill-opacity="1"><g transform="translate(642.735614, 538.440844)"><g><path d="M 7.8125 -7.296875 L 4.8125 -4.25 L 4.8125 0 L 2.46875 0 L 2.46875 -16.421875 L 4.8125 -16.421875 L 4.8125 -7.25 L 13.71875 -16.421875 L 16.390625 -16.421875 L 9.375 -9.03125 L 16.84375 0 L 14.09375 0 Z M 7.8125 -7.296875 "/></g></g></g><g fill="#000000" fill-opacity="1"><g transform="translate(659.596043, 538.440844)"><g><path d="M 2.46875 -16.421875 L 4.8125 -16.421875 L 4.8125 0 L 2.46875 0 Z M 2.46875 -16.421875 "/></g></g></g><g fill="#000000" fill-opacity="1"><g transform="translate(666.865497, 538.440844)"><g><path d="M 16.578125 -16.421875 L 16.578125 0 L 14.65625 0 L 4.8125 -12.25 L 4.8125 0 L 2.46875 0 L 2.46875 -16.421875 L 4.390625 -16.421875 L 14.234375 -4.171875 L 14.234375 -16.421875 Z M 16.578125 -16.421875 "/></g></g></g><g fill="#000000" fill-opacity="1"><g transform="translate(685.906774, 538.440844)"><g><path d="M 13.84375 -8.296875 L 16.09375 -8.296875 L 16.09375 -1.90625 C 15.28125 -1.226562 14.332031 -0.707031 13.25 -0.34375 C 12.164062 0.0078125 11.039062 0.1875 9.875 0.1875 C 8.21875 0.1875 6.722656 -0.175781 5.390625 -0.90625 C 4.066406 -1.632812 3.023438 -2.632812 2.265625 -3.90625 C 1.503906 -5.175781 1.125 -6.609375 1.125 -8.203125 C 1.125 -9.796875 1.503906 -11.234375 2.265625 -12.515625 C 3.023438 -13.804688 4.070312 -14.8125 5.40625 -15.53125 C 6.738281 -16.25 8.242188 -16.609375 9.921875 -16.609375 C 11.234375 -16.609375 12.425781 -16.390625 13.5 -15.953125 C 14.570312 -15.523438 15.484375 -14.898438 16.234375 -14.078125 L 14.78125 -12.625 C 13.46875 -13.882812 11.878906 -14.515625 10.015625 -14.515625 C 8.765625 -14.515625 7.640625 -14.242188 6.640625 -13.703125 C 5.648438 -13.171875 4.875 -12.421875 4.3125 -11.453125 C 3.75 -10.492188 3.46875 -9.410156 3.46875 -8.203125 C 3.46875 -7.015625 3.75 -5.941406 4.3125 -4.984375 C 4.875 -4.023438 5.648438 -3.269531 6.640625 -2.71875 C 7.640625 -2.175781 8.753906 -1.90625 9.984375 -1.90625 C 11.460938 -1.90625 12.75 -2.253906 13.84375 -2.953125 Z M 13.84375 -8.296875 "/></g></g></g><g fill="#000000" fill-opacity="1"><g transform="translate(704.010033, 538.440844)"><g/></g></g><g fill="#000000" fill-opacity="1"><g transform="translate(710.318043, 538.440844)"><g><path d="M 9.796875 0.1875 C 8.160156 0.1875 6.679688 -0.175781 5.359375 -0.90625 C 4.035156 -1.632812 3 -2.632812 2.25 -3.90625 C 1.5 -5.175781 1.125 -6.609375 1.125 -8.203125 C 1.125 -9.796875 1.5 -11.226562 2.25 -12.5 C 3 -13.78125 4.035156 -14.785156 5.359375 -15.515625 C 6.691406 -16.242188 8.179688 -16.609375 9.828125 -16.609375 C 11.109375 -16.609375 12.28125 -16.390625 13.34375 -15.953125 C 14.40625 -15.523438 15.3125 -14.890625 16.0625 -14.046875 L 14.546875 -12.578125 C 13.304688 -13.867188 11.765625 -14.515625 9.921875 -14.515625 C 8.703125 -14.515625 7.597656 -14.238281 6.609375 -13.6875 C 5.628906 -13.144531 4.859375 -12.390625 4.296875 -11.421875 C 3.742188 -10.460938 3.46875 -9.390625 3.46875 -8.203125 C 3.46875 -7.015625 3.742188 -5.941406 4.296875 -4.984375 C 4.859375 -4.023438 5.628906 -3.269531 6.609375 -2.71875 C 7.597656 -2.175781 8.703125 -1.90625 9.921875 -1.90625 C 11.753906 -1.90625 13.296875 -2.5625 14.546875 -3.875 L 16.0625 -2.390625 C 15.3125 -1.546875 14.398438 -0.90625 13.328125 -0.46875 C 12.265625 -0.03125 11.085938 0.1875 9.796875 0.1875 Z M 9.796875 0.1875 "/></g></g></g><g fill="#000000" fill-opacity="1"><g transform="translate(727.272294, 538.440844)"><g><path d="M 9.875 0.1875 C 8.21875 0.1875 6.722656 -0.175781 5.390625 -0.90625 C 4.066406 -1.632812 3.023438 -2.640625 2.265625 -3.921875 C 1.503906 -5.203125 1.125 -6.628906 1.125 -8.203125 C 1.125 -9.785156 1.503906 -11.21875 2.265625 -12.5 C 3.023438 -13.78125 4.066406 -14.785156 5.390625 -15.515625 C 6.722656 -16.242188 8.21875 -16.609375 9.875 -16.609375 C 11.519531 -16.609375 13.003906 -16.242188 14.328125 -15.515625 C 15.660156 -14.785156 16.703125 -13.78125 17.453125 -12.5 C 18.203125 -11.226562 18.578125 -9.796875 18.578125 -8.203125 C 18.578125 -6.609375 18.203125 -5.175781 17.453125 -3.90625 C 16.703125 -2.632812 15.660156 -1.632812 14.328125 -0.90625 C 13.003906 -0.175781 11.519531 0.1875 9.875 0.1875 Z M 9.875 -1.90625 C 11.082031 -1.90625 12.164062 -2.175781 13.125 -2.71875 C 14.082031 -3.269531 14.835938 -4.023438 15.390625 -4.984375 C 15.953125 -5.941406 16.234375 -7.015625 16.234375 -8.203125 C 16.234375 -9.390625 15.953125 -10.460938 15.390625 -11.421875 C 14.835938 -12.390625 14.082031 -13.144531 13.125 -13.6875 C 12.164062 -14.238281 11.082031 -14.515625 9.875 -14.515625 C 8.664062 -14.515625 7.570312 -14.238281 6.59375 -13.6875 C 5.625 -13.144531 4.859375 -12.390625 4.296875 -11.421875 C 3.742188 -10.460938 3.46875 -9.390625 3.46875 -8.203125 C 3.46875 -7.015625 3.742188 -5.941406 4.296875 -4.984375 C 4.859375 -4.023438 5.625 -3.269531 6.59375 -2.71875 C 7.570312 -2.175781 8.664062 -1.90625 9.875 -1.90625 Z M 9.875 -1.90625 "/></g></g></g><g fill="#000000" fill-opacity="1"><g transform="translate(746.970164, 538.440844)"><g><path d="M 9.875 0.1875 C 8.21875 0.1875 6.722656 -0.175781 5.390625 -0.90625 C 4.066406 -1.632812 3.023438 -2.640625 2.265625 -3.921875 C 1.503906 -5.203125 1.125 -6.628906 1.125 -8.203125 C 1.125 -9.785156 1.503906 -11.21875 2.265625 -12.5 C 3.023438 -13.78125 4.066406 -14.785156 5.390625 -15.515625 C 6.722656 -16.242188 8.21875 -16.609375 9.875 -16.609375 C 11.519531 -16.609375 13.003906 -16.242188 14.328125 -15.515625 C 15.660156 -14.785156 16.703125 -13.78125 17.453125 -12.5 C 18.203125 -11.226562 18.578125 -9.796875 18.578125 -8.203125 C 18.578125 -6.609375 18.203125 -5.175781 17.453125 -3.90625 C 16.703125 -2.632812 15.660156 -1.632812 14.328125 -0.90625 C 13.003906 -0.175781 11.519531 0.1875 9.875 0.1875 Z M 9.875 -1.90625 C 11.082031 -1.90625 12.164062 -2.175781 13.125 -2.71875 C 14.082031 -3.269531 14.835938 -4.023438 15.390625 -4.984375 C 15.953125 -5.941406 16.234375 -7.015625 16.234375 -8.203125 C 16.234375 -9.390625 15.953125 -10.460938 15.390625 -11.421875 C 14.835938 -12.390625 14.082031 -13.144531 13.125 -13.6875 C 12.164062 -14.238281 11.082031 -14.515625 9.875 -14.515625 C 8.664062 -14.515625 7.570312 -14.238281 6.59375 -13.6875 C 5.625 -13.144531 4.859375 -12.390625 4.296875 -11.421875 C 3.742188 -10.460938 3.46875 -9.390625 3.46875 -8.203125 C 3.46875 -7.015625 3.742188 -5.941406 4.296875 -4.984375 C 4.859375 -4.023438 5.625 -3.269531 6.59375 -2.71875 C 7.570312 -2.175781 8.664062 -1.90625 9.875 -1.90625 Z M 9.875 -1.90625 "/></g></g></g><g fill="#000000" fill-opacity="1"><g transform="translate(766.668034, 538.440844)"><g><path d="M 7.8125 -7.296875 L 4.8125 -4.25 L 4.8125 0 L 2.46875 0 L 2.46875 -16.421875 L 4.8125 -16.421875 L 4.8125 -7.25 L 13.71875 -16.421875 L 16.390625 -16.421875 L 9.375 -9.03125 L 16.84375 0 L 14.09375 0 Z M 7.8125 -7.296875 "/></g></g></g></svg>